# xmcd CD database file
#
# Track frame offsets:
#	150
#	17019
#	38098
#	53030
#	64127
#	75340
#	100267
#	121194
#	141817
#	156078
#	176492
#	193692
#	209813
#	227524
#	240714
#	266027
#	279225
#	298055
#	314959
#
# Disc length: 4314 seconds
#
# Revision: 0
# Processed by: cddbd v1.5.1PL0 Copyright (c) Steve Scherf et al.
# Submitted via: Feurio! 1.66 - http://www.feurio.com
#
DISCID=1310d813
DTITLE=Various Artist - barely legal iv
DYEAR=1900
DGENRE=Latin
TTITLE0=madredeus - o pastor
TTITLE1=16 horsepower - poor mouth
TTITLE2=lullaby for the working class - hypnotist
TTITLE3=francoiz breut - si tu disais
TTITLE4=tim easton - true ways
TTITLE5=aereogramme - zionist timing
TTITLE6=missy roback - just like breathing
TTITLE7=waycross - lovers of art
TTITLE8=wolverton brothers - west texas highway
TTITLE9=pinetop seven - quit these hills
TTITLE10=mazarin - what sees the sky
TTITLE11=apples in stereo - benefits of lying with your friends
TTITLE12=shearwater - not tonight
TTITLE13=guided by voices - teenage fbi
TTITLE14=my morning jacket - the way that he sings
TTITLE15=american analog set - weather report
TTITLE16=barbara morgenstern - der augenblick
TTITLE17=heavenly - space manatee
TTITLE18=avengers - teenage rebel
EXTD=
EXTT0=
EXTT1=
EXTT2=
EXTT3=
EXTT4=
EXTT5=
EXTT6=
EXTT7=
EXTT8=
EXTT9=
EXTT10=
EXTT11=
EXTT12=
EXTT13=
EXTT14=
EXTT15=
EXTT16=
EXTT17=
EXTT18=
PLAYORDER=
